<svg id="Layer_1" enable-background="new 0 0 512 512" height="512" viewBox="0 0 512 512" width="512" xmlns="http://www.w3.org/2000/svg"><g><g><path d="m177.205 60.697c-2.479-13.154-5.272-25.127-8.334-35.673-4.31-14.846-17.947-25.024-33.406-25.024s-29.096 10.178-33.406 25.024c-12.616 43.456-20.72 110.961-20.72 186.771 0 18.516.484 36.535 1.398 53.831l4.114 2.295h81.384l12.705-201.572z" fill="#ffaa5b"/></g><path d="m116.782 211.795c0-75.81 8.104-143.314 20.72-186.771 2.526-8.702 8.26-15.796 15.685-20.181-5.242-3.096-11.324-4.843-17.722-4.843-15.459 0-29.096 10.178-33.406 25.024-12.616 43.456-20.72 110.961-20.72 186.771 0 18.516.484 36.535 1.398 53.831l4.114 2.295h35.443l-4.114-2.295c-.914-17.297-1.398-35.316-1.398-53.831z" fill="#ff9838"/><g><path d="m111.22 122.481c-4.065-1.297-6.309-5.644-5.012-9.709s5.644-6.31 9.709-5.012c9.682 3.089 29.413 3.089 39.095 0 4.066-1.3 8.412.947 9.709 5.012s-.947 8.412-5.012 9.709c-12.688 4.048-35.799 4.049-48.489 0z" fill="#ffba7e"/></g><g><path d="m116.556 86.665c-4.065-1.297-6.309-5.644-5.012-9.709s5.643-6.31 9.709-5.012c6.906 2.203 21.518 2.203 28.424 0 4.063-1.297 8.412.947 9.709 5.012s-.947 8.412-5.012 9.709c-9.895 3.158-27.923 3.157-37.818 0z" fill="#ffba7e"/></g><g><path d="m108.29 158.601c-4.065-1.297-6.309-5.644-5.012-9.709 1.297-4.064 5.643-6.309 9.709-5.012 11.134 3.551 33.822 3.551 44.956 0 4.066-1.3 8.412.947 9.709 5.012s-.947 8.412-5.012 9.709c-14.22 4.537-40.127 4.538-54.35 0z" fill="#ffba7e"/></g><g><path d="m108.29 194.899c-4.065-1.297-6.309-5.644-5.012-9.709s5.643-6.309 9.709-5.012c11.134 3.552 33.822 3.552 44.956 0 4.064-1.296 8.412.947 9.709 5.012s-.947 8.412-5.012 9.709c-14.22 4.537-40.127 4.538-54.35 0z" fill="#ffba7e"/></g><g><path d="m108.29 231.196c-4.065-1.297-6.309-5.644-5.012-9.709s5.643-6.311 9.709-5.012c11.134 3.552 33.822 3.552 44.956 0 4.064-1.296 8.412.947 9.709 5.012s-.947 8.412-5.012 9.709c-14.22 4.538-40.127 4.539-54.35 0z" fill="#ffba7e"/></g><g><path d="m252.351 25.024c-4.311-14.846-17.947-25.024-33.407-25.024-15.459 0-29.096 10.178-33.406 25.024-12.616 43.456-20.72 110.961-20.72 186.771 0 18.516.484 36.535 1.398 53.831l3.049 5.042h42.237l59.31-117.917v-9.008c-3.238-47.538-9.782-88.821-18.461-118.719z" fill="#ffba7e"/></g><path d="m200.262 211.795c0-75.81 8.104-143.314 20.72-186.771 2.526-8.702 8.26-15.796 15.684-20.181-5.241-3.096-11.324-4.843-17.722-4.843-15.459 0-29.096 10.178-33.406 25.024-12.616 43.456-20.72 110.961-20.72 186.771 0 18.516.484 36.535 1.398 53.831l3.049 5.042h35.443l-3.049-5.042c-.913-17.297-1.397-35.316-1.397-53.831z" fill="#ffaa5b"/><g><path d="m194.7 122.481c-4.065-1.297-6.309-5.644-5.012-9.709s5.644-6.31 9.709-5.012c9.682 3.089 29.413 3.089 39.095 0 4.066-1.3 8.412.947 9.709 5.012s-.947 8.412-5.012 9.709c-12.688 4.048-35.8 4.049-48.489 0z" fill="#ffcb9e"/></g><g><path d="m200.036 86.665c-4.065-1.297-6.309-5.644-5.012-9.709s5.643-6.31 9.709-5.012c6.906 2.204 21.518 2.205 28.424 0 4.064-1.3 8.412.947 9.709 5.012s-.947 8.412-5.012 9.709c-9.892 3.157-27.919 3.158-37.818 0z" fill="#ffcb9e"/></g><g><path d="m191.769 158.601c-4.065-1.297-6.309-5.644-5.012-9.709 1.297-4.064 5.644-6.309 9.709-5.012 11.134 3.551 33.822 3.551 44.956 0 4.066-1.3 8.412.947 9.709 5.012s-.947 8.412-5.012 9.709c-14.219 4.537-40.127 4.538-54.35 0z" fill="#ffcb9e"/></g><g><path d="m191.769 194.899c-4.065-1.297-6.309-5.644-5.012-9.709s5.644-6.309 9.709-5.012c11.134 3.552 33.822 3.552 44.956 0 4.063-1.296 8.412.947 9.709 5.012s-.947 8.412-5.012 9.709c-14.219 4.537-40.127 4.538-54.35 0z" fill="#ffcb9e"/></g><g><path d="m191.769 231.196c-4.065-1.297-6.309-5.644-5.012-9.709s5.644-6.311 9.709-5.012c6.261 1.997 17.068 2.998 27.537 2.549 4.263-.198 7.867 3.125 8.05 7.388s-3.125 7.867-7.388 8.05c-10.101.434-23.375-.228-32.896-3.266z" fill="#ffcb9e"/></g><g><path d="m373.598 116.278c.117-.701.239-1.409.35-2.101 2.436-15.266-5.555-30.289-19.537-36.885s-30.658-3.208-40.889 8.38c-41.388 46.874-81.983 122.705-107.545 179.954l7.931 5.042h80.086l80.388-147.659z" fill="#ffaa5b"/></g><path d="m348.964 85.672c2.441-2.764 5.251-5.056 8.301-6.863-.922-.544-1.872-1.054-2.855-1.517-13.982-6.596-30.658-3.208-40.889 8.38-41.388 46.874-81.983 122.705-107.545 179.954l7.931 5.042h35.443l-7.931-5.042c25.562-57.25 66.157-133.08 107.545-179.954z" fill="#ff9838"/><g fill="#ffba7e"><path d="m308.587 155.615c4.143 1.029 8.333-1.495 9.362-5.636s-1.494-8.332-5.635-9.361c-7.476-1.857-19.845-8.718-28.159-15.619-.201-.167-.409-.322-.621-.465-2.9 4.202-5.777 8.491-8.626 12.856 10.125 8.247 24.162 15.86 33.679 18.225z"/><path d="m322.838 122.325c4.143 1.029 8.333-1.496 9.361-5.636 1.029-4.141-1.494-8.332-5.636-9.361-5.558-1.381-14.988-6.689-21.022-11.832-.068-.058-.14-.106-.209-.161-3.187 3.904-6.363 7.971-9.523 12.163 6.847 5.761 18.216 12.638 27.029 14.827z"/><path d="m301.491 182.264c1.029-4.141-1.494-8.332-5.636-9.361-8.295-2.06-21.77-9.414-31.342-17.105-.274-.22-.561-.41-.854-.587-2.687 4.397-5.339 8.841-7.956 13.313 11.347 8.92 26.177 16.829 36.426 19.375 4.144 1.03 8.334-1.495 9.362-5.635z"/><path d="m273.085 218.8c4.14 1.029 8.332-1.494 9.361-5.636 1.029-4.141-1.494-8.332-5.636-9.361-8.055-2.001-20.866-8.901-30.462-16.406-.323-.253-.664-.467-1.011-.66-2.522 4.552-5 9.109-7.427 13.659 9.554 7.272 23.793 15.577 35.175 18.404z"/><path d="m254.038 249.7c4.143 1.029 8.333-1.495 9.362-5.635 1.029-4.141-1.494-8.332-5.635-9.362-7.415-1.843-19.134-7.974-28.498-14.912-.353-.261-.723-.479-1.101-.672-2.378 4.685-4.691 9.332-6.939 13.928 10.921 7.894 23.666 14.381 32.811 16.653z"/></g><g><path d="m438.613 77.292c-13.981-6.596-30.657-3.208-40.889 8.38-29.95 33.92-66.08 91.515-98.424 160.079-3.146 6.669-6.184 13.297-9.121 19.874l3.814 5.042h108.436l6.745-5.042c25.674-58.574 42.766-112.531 48.976-151.449 2.436-15.265-5.555-30.289-19.537-36.884z" fill="#ffba7e"/></g><g><path d="m438.613 77.292c-13.981-6.596-30.657-3.208-40.889 8.38-29.95 33.92-66.08 91.515-98.424 160.079-3.146 6.669-6.184 13.297-9.121 19.874l3.814 5.042h108.436l6.745-5.042c25.674-58.574 42.766-112.531 48.976-151.449 2.436-15.265-5.555-30.289-19.537-36.884z" fill="#ffba7e"/></g><path d="m334.743 245.751c32.344-68.564 68.474-126.159 98.424-160.079 2.441-2.764 5.251-5.056 8.301-6.863-.922-.544-1.872-1.054-2.855-1.517-13.981-6.596-30.657-3.208-40.889 8.38-29.95 33.92-66.08 91.515-98.424 160.079-3.146 6.669-6.184 13.297-9.121 19.874l3.814 5.042h35.443l-3.814-5.042c2.936-6.577 5.975-13.205 9.121-19.874z" fill="#ffaa5b"/><path d="m418.344 302.293-5.957-3.862h-340.785l-6.662 3.862s-10.557 107.159 50.671 192.1c7.943 11.019 20.653 17.607 34.236 17.607h183.591c13.583 0 26.293-6.588 34.235-17.607 61.228-84.941 50.671-192.1 50.671-192.1z" fill="#477b9e"/><path d="m170.512 494.393c-61.228-84.942-50.671-192.1-50.671-192.1l6.662-3.862h-54.9l-6.662 3.862s-10.557 107.159 50.671 192.1c7.942 11.019 20.652 17.607 34.235 17.607h54.9c-13.583 0-26.293-6.588-34.235-17.607z" fill="#3f6d8e"/><path d="m396.516 140.618c-7.476-1.857-19.845-8.718-28.159-15.619-.19-.158-.387-.303-.587-.44-2.856 4.139-5.735 8.426-8.631 12.854 10.123 8.237 24.143 15.839 33.652 18.201 4.14 1.029 8.332-1.494 9.361-5.636 1.029-4.14-1.495-8.331-5.636-9.36z" fill="#ffcb9e"/><path d="m416.402 116.689c1.029-4.141-1.494-8.332-5.636-9.361-5.559-1.381-14.989-6.689-21.021-11.832-.065-.056-.135-.102-.202-.155-3.121 3.834-6.294 7.894-9.513 12.172 6.849 5.758 18.204 12.625 27.01 14.812 4.144 1.029 8.334-1.496 9.362-5.636z" fill="#ffcb9e"/><path d="m376.333 187.9c4.143 1.029 8.333-1.496 9.361-5.636 1.029-4.141-1.494-8.332-5.636-9.361-8.296-2.061-21.77-9.414-31.343-17.105-.269-.216-.551-.403-.839-.578-2.655 4.332-5.316 8.759-7.979 13.298 11.349 8.923 26.183 16.835 36.436 19.382z" fill="#ffcb9e"/><path d="m357.287 218.8c4.14 1.029 8.332-1.494 9.361-5.636 1.029-4.141-1.494-8.332-5.636-9.361-8.055-2.001-20.866-8.9-30.462-16.406-.331-.259-.68-.478-1.036-.675-2.483 4.471-4.961 9.024-7.431 13.651 9.555 7.278 23.812 15.597 35.204 18.427z" fill="#ffcb9e"/><path d="m338.242 249.7c4.143 1.029 8.333-1.495 9.362-5.635 1.029-4.141-1.494-8.332-5.635-9.362-7.415-1.842-19.134-7.974-28.498-14.912-.362-.268-.743-.492-1.132-.688-2.324 4.584-4.637 9.223-6.933 13.927 10.926 7.902 23.684 14.396 32.836 16.67z" fill="#ffcb9e"/><path d="m392.449 298.431-19.905 53.473-18.21-48.919 1.695-4.554h-19.879l1.695 4.554-18.21 48.919-18.21-48.919 1.695-4.554h-19.88l1.695 4.554-18.21 48.918-18.21-48.919 1.695-4.554h-19.88l1.695 4.554-18.21 48.919-18.21-48.919 1.695-4.554h-19.879l1.695 4.554-18.21 48.919-18.21-48.919 1.695-4.554h-19.879l1.695 4.554-18.21 48.919-19.906-53.473h-16.489l28.15 75.62-19.029 51.119c2.414 7.254 5.177 14.589 8.325 21.931l18.949-50.903 18.21 48.919-15.631 41.989c1.624 2.444 3.298 4.876 5.036 7.288 1.824 2.531 3.91 4.815 6.19 6.852l12.65-33.982 16.652 44.737h19.603l16.653-44.736 16.654 44.736h19.603l16.653-44.736 16.653 44.736h19.603l16.653-44.736 16.654 44.736h19.603l16.653-44.736 13.303 35.737c3.113-2.441 5.913-5.322 8.281-8.607 1.115-1.547 2.199-3.103 3.267-4.664l-16.607-44.612 18.21-48.919 20.212 54.296c3.195-7.177 6.016-14.357 8.495-21.473l-20.463-54.971 28.15-75.62zm-276.208 75.619 18.21-48.919 18.21 48.919-18.21 48.919zm44.665 119.986-18.21-48.919 18.21-48.919 18.21 48.919zm8.244-119.986 18.21-48.919 18.21 48.919-18.21 48.919zm44.665 119.986-18.21-48.919 18.21-48.919 18.21 48.919zm8.245-119.985 18.21-48.919 18.21 48.919-18.21 48.919zm44.665 119.985-18.21-48.919 18.21-48.919 18.21 48.919zm8.244-119.986 18.21-48.919 18.21 48.919-18.21 48.919zm44.665 119.985-18.21-48.919 18.21-48.919 18.21 48.919zm26.455-71.065-18.21-48.919 18.21-48.919 18.21 48.919z" fill="#3f6d8e"/><path d="m418.344 265.625h-353.404c-6.365 0-11.524 5.159-11.524 11.524v13.619c0 6.365 5.159 11.524 11.524 11.524h353.404c6.365 0 11.524-5.159 11.524-11.524v-13.619c.001-6.364-5.159-11.524-11.524-11.524z" fill="#5895b7"/><path d="m113.494 290.769v-13.619c0-6.365 5.16-11.524 11.524-11.524h-60.078c-6.365 0-11.524 5.159-11.524 11.524v13.619c0 6.365 5.159 11.524 11.524 11.524h60.078c-6.364 0-11.524-5.16-11.524-11.524z" fill="#477b9e"/></g></svg>