<svg height="512" viewBox="0 0 44 58" width="512" xmlns="http://www.w3.org/2000/svg"><g id="Page-1" fill="none" fill-rule="evenodd"><g id="018---Wine" fill-rule="nonzero"><path id="Shape" d="m37 54c-3 0-3-5-3-10-.0581291-1.7427864.1889245-3.4823147.73-5.14h-5.46c.5410755 1.6576853.7881291 3.3972136.73 5.14 0 5 0 10-3 10l5 1z" fill="#2fa8cc"/><path id="Shape" d="m24 36.49v19.06l-.85 2.09c-.336827.236147-.7386436.3619331-1.15.36h-20c-1.10320187-.0032948-1.9967052-.8967981-2-2v-29.96c-.00030148-1.9577658.71855638-3.8474367 2.02-5.31l4.46-5.03c.9802999-1.0937294 1.5216642-2.5112491 1.52-3.98v-10.72c0-.55228475.44771525-1 1-1h6c.4236174.00168758.8002085.27010888.94.67.040948.10514275.0613171.21717268.06.33v10.72c-.0016642 1.4687509.5397001 2.8862706 1.52 3.98l2.48 2.8z" fill="#35495e"/><path id="Shape" d="m16 1v10h-8v-10c0-.55228475.44771525-1 1-1h6c.5522847 0 1 .44771525 1 1z" fill="#547580"/><path id="Shape" d="m24 36.49v13.51h-24v-22h20z" fill="#f0c419"/><path id="Shape" d="m13 4c0 .55228475-.4477153 1-1 1h-4v-2h4c.5522847 0 1 .44771525 1 1z" fill="#3f5c6c"/><rect id="Rectangle-path" fill="#35495e" height="4" rx="2" width="13" x="4" y="33"/><g fill="#3f5c6c"><path id="Shape" d="m12 42h-6c-.55228475 0-1-.4477153-1-1s.44771525-1 1-1h6c.5522847 0 1 .4477153 1 1s-.4477153 1-1 1z"/><path id="Shape" d="m17 42h-1c-.5522847 0-1-.4477153-1-1s.4477153-1 1-1h1c.5522847 0 1 .4477153 1 1s-.4477153 1-1 1z"/><path id="Shape" d="m15 46h-6c-.55228475 0-1-.4477153-1-1s.44771525-1 1-1h6c.5522847 0 1 .4477153 1 1s-.4477153 1-1 1z"/></g><path id="Shape" d="m21 15h22c.5522847 0 1 .4477153 1 1v12c0 2.9173814-1.1589252 5.7152744-3.2218254 7.7781746s-4.8607932 3.2218254-7.7781746 3.2218254h-2c-6.0751322 0-11-4.9248678-11-11v-12c0-.5522847.4477153-1 1-1z" fill="#67b9cc"/><path id="Shape" d="m38.352 54h-12.7c-.6681663.0348415-1.2478777.4727929-1.464 1.106l-1.188 2.894h18l-1.184-2.894c-.2161223-.6332071-.7958337-1.0711585-1.464-1.106z" fill="#67b9cc"/><path id="Shape" d="m44.0000016 24-.0000016 4c.0015929 2.9178694-1.1568209 5.716688-3.2200664 7.7799336-2.0632456 2.0632455-4.8620642 3.2216593-7.7799336 3.2200664h-2c-2.9178694.0015929-5.716688-1.1568209-7.7799336-3.2200664-2.0632455-2.0632456-3.2216593-4.8620642-3.2200664-7.7799336l-.0000016-4z" fill="#802d40"/><path id="Shape" d="m31 36c-4.4162219-.0049599-7.9950401-3.5837781-8-8 0-.5522847.4477153-1 1-1s1 .4477153 1 1c.0033074 3.3123376 2.6876624 5.9966926 6 6 .5522847 0 1 .4477153 1 1s-.4477153 1-1 1z" fill="#d75e72"/></g></g></svg>